<svg height="96" version="1.1" width="96" xmlns="http://www.w3.org/2000/svg" xmlns:xlink="http://www.w3.org/1999/xlink" style="overflow: hidden; position: relative;" viewBox="0 0 768 768" preserveAspectRatio="xMinYMin"><desc style="-webkit-tap-highlight-color: rgba(0, 0, 0, 0);">Created with Raphaël 2.2.0</desc><defs style="-webkit-tap-highlight-color: rgba(0, 0, 0, 0);"><path stroke-linecap="round" d="M5,0 0,2.5 5,5z" id="raphael-marker-block" style="-webkit-tap-highlight-color: rgba(0, 0, 0, 0);"></path><marker id="raphael-marker-endblock23-objqfgkj" markerHeight="3" markerWidth="2" orient="auto" refX="1" refY="1.5" style="-webkit-tap-highlight-color: rgba(0, 0, 0, 0);"><use xmlns:xlink="http://www.w3.org/1999/xlink" xlink:href="#raphael-marker-block" transform="rotate(180 1 1.5) scale(0.4,0.6)" stroke-width="2.0000" fill="#fff" stroke="none" style="-webkit-tap-highlight-color: rgba(0, 0, 0, 0);"></use></marker><marker id="raphael-marker-endblock23-obju3x4t" markerHeight="3" markerWidth="2" orient="auto" refX="1" refY="1.5" style="-webkit-tap-highlight-color: rgba(0, 0, 0, 0);"><use xmlns:xlink="http://www.w3.org/1999/xlink" xlink:href="#raphael-marker-block" transform="rotate(180 1 1.5) scale(0.4,0.6)" stroke-width="2.0000" fill="#fff" stroke="none" style="-webkit-tap-highlight-color: rgba(0, 0, 0, 0);"></use></marker><marker id="raphael-marker-endblock23-obj6y6nq" markerHeight="3" markerWidth="2" orient="auto" refX="1" refY="1.5" style="-webkit-tap-highlight-color: rgba(0, 0, 0, 0);"><use xmlns:xlink="http://www.w3.org/1999/xlink" xlink:href="#raphael-marker-block" transform="rotate(180 1 1.5) scale(0.4,0.6)" stroke-width="2.0000" fill="#fff" stroke="none" style="-webkit-tap-highlight-color: rgba(0, 0, 0, 0);"></use></marker><marker id="raphael-marker-endblock23-obj1cynj" markerHeight="3" markerWidth="2" orient="auto" refX="1" refY="1.5" style="-webkit-tap-highlight-color: rgba(0, 0, 0, 0);"><use xmlns:xlink="http://www.w3.org/1999/xlink" xlink:href="#raphael-marker-block" transform="rotate(180 1 1.5) scale(0.4,0.6)" stroke-width="2.0000" fill="#fff" stroke="none" style="-webkit-tap-highlight-color: rgba(0, 0, 0, 0);"></use></marker><marker id="raphael-marker-endblock23-objv8pe6" markerHeight="3" markerWidth="2" orient="auto" refX="1" refY="1.5" style="-webkit-tap-highlight-color: rgba(0, 0, 0, 0);"><use xmlns:xlink="http://www.w3.org/1999/xlink" xlink:href="#raphael-marker-block" transform="rotate(180 1 1.5) scale(0.4,0.6)" stroke-width="2.0000" fill="#fff" stroke="none" style="-webkit-tap-highlight-color: rgba(0, 0, 0, 0);"></use></marker><marker id="raphael-marker-endblock23-objpfcbu" markerHeight="3" markerWidth="2" orient="auto" refX="1" refY="1.5" style="-webkit-tap-highlight-color: rgba(0, 0, 0, 0);"><use xmlns:xlink="http://www.w3.org/1999/xlink" xlink:href="#raphael-marker-block" transform="rotate(180 1 1.5) scale(0.4,0.6)" stroke-width="2.0000" fill="#fff" stroke="none" style="-webkit-tap-highlight-color: rgba(0, 0, 0, 0);"></use></marker><marker id="raphael-marker-endblock23-objv4963" markerHeight="3" markerWidth="2" orient="auto" refX="1" refY="1.5" style="-webkit-tap-highlight-color: rgba(0, 0, 0, 0);"><use xmlns:xlink="http://www.w3.org/1999/xlink" xlink:href="#raphael-marker-block" transform="rotate(180 1 1.5) scale(0.4,0.6)" stroke-width="2.0000" fill="#fff" stroke="none" style="-webkit-tap-highlight-color: rgba(0, 0, 0, 0);"></use></marker><marker id="raphael-marker-endblock23-obj1qnuy" markerHeight="3" markerWidth="2" orient="auto" refX="1" refY="1.5" style="-webkit-tap-highlight-color: rgba(0, 0, 0, 0);"><use xmlns:xlink="http://www.w3.org/1999/xlink" xlink:href="#raphael-marker-block" transform="rotate(180 1 1.5) scale(0.4,0.6)" stroke-width="2.0000" fill="#fff" stroke="none" style="-webkit-tap-highlight-color: rgba(0, 0, 0, 0);"></use></marker></defs><path fill="none" stroke="#ffffff" d="M384,300C384,300,384,121.66950702667236,384,39.99274803791195" transform="matrix(1,0,0,1,0,0)" stroke-width="40" marker-end="url(#raphael-marker-endblock23-objqfgkj)" style="-webkit-tap-highlight-color: rgba(0, 0, 0, 0);"></path><path fill="none" stroke="#ffffff" d="M384,220C384,220,384,103.43386083841324,384,39.99979731517669" transform="matrix(0.7071,0.7071,-0.7071,0.7071,384,-159.058)" stroke-width="40" marker-end="url(#raphael-marker-endblock23-obju3x4t)" style="-webkit-tap-highlight-color: rgba(0, 0, 0, 0);"></path><path fill="none" stroke="#ffffff" d="M384,120C384,120,384,74.90226030349731,384,39.999956876272336" transform="matrix(0,1,-1,0,768,0)" stroke-width="40" marker-end="url(#raphael-marker-endblock23-obj6y6nq)" style="-webkit-tap-highlight-color: rgba(0, 0, 0, 0);"></path><path fill="none" stroke="#ffffff" d="M384,225C384,225,384,104.66242097318172,384,39.99859982131966" transform="matrix(-0.7071,0.7071,-0.7071,-0.7071,927.058,384)" stroke-width="40" marker-end="url(#raphael-marker-endblock23-obj1cynj)" style="-webkit-tap-highlight-color: rgba(0, 0, 0, 0);"></path><path fill="none" stroke="#ffffff" d="M384,256C384,256,384,112,384,40" transform="matrix(-1,0,0,-1,768,768)" stroke-width="40" marker-end="url(#raphael-marker-endblock23-objv8pe6)" style="-webkit-tap-highlight-color: rgba(0, 0, 0, 0);"></path><path fill="none" stroke="#ffffff" d="M384,230C384,230,384,105.87698519229889,384,39.99724051653175" transform="matrix(-0.7071,-0.7071,0.7071,-0.7071,384,927.058)" stroke-width="40" marker-end="url(#raphael-marker-endblock23-objpfcbu)" style="-webkit-tap-highlight-color: rgba(0, 0, 0, 0);"></path><path fill="none" stroke="#ffffff" d="M384,100C384,100,384,67.84921735525131,384,40.00770709135395" transform="matrix(0,-1,1,0,0,768)" stroke-width="40" marker-end="url(#raphael-marker-endblock23-objv4963)" style="-webkit-tap-highlight-color: rgba(0, 0, 0, 0);"></path><path fill="none" stroke="#ffffff" d="M384,230C384,230,384,105.87698519229889,384,39.99724051653175" transform="matrix(0.7071,-0.7071,0.7071,0.7071,-159.058,384)" stroke-width="40" marker-end="url(#raphael-marker-endblock23-obj1qnuy)" style="-webkit-tap-highlight-color: rgba(0, 0, 0, 0);"></path><path fill="#ffffff" stroke="none" d="M232.22222222222223,477.66666666666663C284.1666666666667,477.66666666666663,326.6666666666667,434.2222222222222,325.72222222222223,383.2222222222222C325.72222222222223,383.2222222222222,377.6666666666667,383.2222222222222,377.6666666666667,383.2222222222222C377.6666666666667,383.2222222222222,377.6666666666667,529.6111111111111,377.6666666666667,529.6111111111111C377.6666666666667,529.6111111111111,324.77777777777777,481.4444444444444,324.77777777777777,481.4444444444444C243.55555555555554,564.5555555555555,97.16666666666667,495.6111111111111,97.16666666666667,383.2222222222222C97.16666666666667,276.5,234.1111111111111,203.77777777777777,318.1666666666667,279.3333333333333C318.1666666666667,279.3333333333333,292.6666666666667,312.38888888888886,292.6666666666667,312.38888888888886C236,258.55555555555554,137.77777777777777,307.66666666666663,137.77777777777777,383.2222222222222C137.77777777777777,435.16666666666663,181.22222222222223,477.66666666666663,232.22222222222223,477.66666666666663C232.22222222222223,477.66666666666663,232.22222222222223,477.66666666666663,232.22222222222223,477.66666666666663M314.3888888888889,383.2222222222222C315.3333333333333,427.6111111111111,276.6111111111111,466.3333333333333,232.22222222222223,466.3333333333333C187.83333333333331,466.3333333333333,149.11111111111111,427.6111111111111,149.11111111111111,383.2222222222222C149.11111111111111,317.1111111111111,236.94444444444446,273.66666666666663,286.05555555555554,321.8333333333333C286.05555555555554,321.8333333333333,261.5,353.94444444444446,261.5,353.94444444444446C236.94444444444446,327.5,190.66666666666669,348.2777777777777,190.66666666666669,383.2222222222222C190.66666666666669,405.88888888888886,210.5,424.77777777777777,232.22222222222223,424.77777777777777C253.94444444444446,424.77777777777777,274.72222222222223,404.94444444444446,272.8333333333333,383.2222222222222C272.8333333333333,383.2222222222222,314.3888888888889,383.2222222222222,314.3888888888889,383.2222222222222C314.3888888888889,383.2222222222222,314.3888888888889,383.2222222222222,314.3888888888889,383.2222222222222M521.193888888889,253.83333333333331C590.1383333333333,251.9444444444444,650.5827777777779,314.27777777777777,650.5827777777779,383.2222222222222C650.5827777777779,451.2222222222222,589.193888888889,512.6111111111111,521.193888888889,512.6111111111111C521.193888888889,512.6111111111111,388.9716666666667,512.6111111111111,388.9716666666667,512.6111111111111C388.9716666666667,512.6111111111111,388.9716666666667,253.83333333333331,388.9716666666667,253.83333333333331C388.9716666666667,253.83333333333331,521.193888888889,253.83333333333331,521.193888888889,253.83333333333331C521.193888888889,253.83333333333331,521.193888888889,253.83333333333331,521.193888888889,253.83333333333331M521.193888888889,465.38888888888886C564.6383333333333,466.3333333333333,603.3605555555556,426.66666666666663,603.3605555555556,383.2222222222222C603.3605555555556,338.8333333333333,565.5827777777778,300.1111111111111,521.193888888889,300.1111111111111C521.193888888889,300.1111111111111,435.24944444444446,300.1111111111111,435.24944444444446,300.1111111111111C435.24944444444446,300.1111111111111,435.24944444444446,465.38888888888886,435.24944444444446,465.38888888888886C435.24944444444446,465.38888888888886,521.193888888889,465.38888888888886,521.193888888889,465.38888888888886C521.193888888889,465.38888888888886,521.193888888889,465.38888888888886,521.193888888889,465.38888888888886M521.193888888889,312.38888888888886C558.0272222222222,311.44444444444446,592.0272222222222,345.44444444444446,592.0272222222222,383.2222222222222C592.0272222222222,420.05555555555554,558.0272222222222,454.05555555555554,521.193888888889,454.05555555555554C521.193888888889,454.05555555555554,446.58277777777784,454.05555555555554,446.58277777777784,454.05555555555554C446.58277777777784,454.05555555555554,446.58277777777784,312.38888888888886,446.58277777777784,312.38888888888886C446.58277777777784,312.38888888888886,521.193888888889,312.38888888888886,521.193888888889,312.38888888888886C521.193888888889,312.38888888888886,521.193888888889,312.38888888888886,521.193888888889,312.38888888888886M493.80500000000006,406.8333333333333C520.2494444444445,408.7222222222222,544.8050000000001,407.77777777777777,544.8050000000001,383.2222222222222C544.8050000000001,359.6111111111111,520.2494444444445,356.7777777777777,493.80500000000006,358.66666666666663C493.80500000000006,358.66666666666663,493.80500000000006,406.8333333333333,493.80500000000006,406.8333333333333C493.80500000000006,406.8333333333333,493.80500000000006,406.8333333333333,493.80500000000006,406.8333333333333" style="-webkit-tap-highlight-color: rgba(0, 0, 0, 0);" stroke-width="1"></path></svg>
